<?xml version="1.0" standalone="no"?>
<!DOCTYPE svg PUBLIC "-//W3C//DTD SVG 20010904//EN"
 "http://www.w3.org/TR/2001/REC-SVG-20010904/DTD/svg10.dtd">
<svg version="1.0" xmlns="http://www.w3.org/2000/svg"
 width="600.000000pt" height="600.000000pt" viewBox="0 0 600.000000 600.000000"
 preserveAspectRatio="xMidYMid meet">
<metadata>
Created by potrace 1.11, written by Peter Selinger 2001-2013
</metadata>
<g transform="translate(0.000000,600.000000) scale(0.100000,-0.100000)"
fill="#000000" stroke="none">
<path d="M2340 5985 c-191 -40 -330 -208 -400 -480 -10 -41 -22 -100 -25 -132
-4 -32 -8 -65 -10 -73 -7 -24 -14 -160 -20 -350 -10 -306 -14 -423 -20 -505
-9 -116 -41 -268 -68 -329 -21 -46 -36 -61 -108 -109 -104 -69 -267 -140 -564
-246 -398 -143 -576 -220 -713 -311 -233 -155 -330 -378 -257 -593 81 -237
337 -404 950 -618 328 -114 479 -181 607 -271 78 -55 109 -129 133 -320 12
-104 15 -148 30 -603 18 -522 74 -747 227 -910 37 -41 80 -73 124 -96 67 -34
70 -34 198 -34 118 0 137 3 192 26 188 79 378 264 694 674 213 277 357 434
459 502 50 33 63 37 128 39 123 3 279 -28 553 -108 228 -67 485 -136 567 -152
43 -9 92 -18 108 -22 17 -4 93 -8 171 -10 121 -2 151 1 220 20 98 28 167 64
224 119 172 168 181 427 24 740 -59 118 -108 196 -329 527 -209 313 -277 431
-315 544 -26 76 -25 102 4 178 56 151 62 160 464 755 124 183 249 424 277 534
13 50 16 97 14 195 -4 122 -6 133 -36 195 -69 139 -210 235 -378 256 -94 12
-291 6 -355 -12 -8 -2 -33 -6 -55 -10 -57 -8 -249 -58 -470 -122 -275 -80
-281 -81 -380 -104 -122 -28 -173 -34 -286 -34 l-96 0 -57 44 c-74 55 -177
157 -245 241 -29 36 -58 72 -64 80 -7 8 -69 89 -137 180 -69 90 -132 174 -142
185 -9 11 -44 54 -78 95 -34 41 -107 119 -162 173 -222 216 -405 293 -598 252z"/>
</g>
</svg>
